<?xml version="1.0" encoding="UTF-8"?> <svg xmlns="http://www.w3.org/2000/svg" width="51" height="36" viewBox="0 0 51 36" fill="none"> <path d="M8.24609 26.2344C6.26693 26.2344 4.69466 25.5801 3.5293 24.2715C2.37044 22.9629 1.79102 21.1888 1.79102 18.9492C1.79102 16.7227 2.3737 14.9551 3.53906 13.6465C4.70443 12.3314 6.27344 11.6738 8.24609 11.6738C9.84766 11.6738 11.1986 12.1263 12.2988 13.0312C13.3991 13.9297 14.0404 15.1113 14.2227 16.5762H12.0547C11.8594 15.6712 11.4134 14.9486 10.7168 14.4082C10.0267 13.8613 9.20312 13.5879 8.24609 13.5879C6.96354 13.5879 5.93815 14.0762 5.16992 15.0527C4.4082 16.0228 4.02734 17.3216 4.02734 18.9492C4.02734 20.5964 4.4082 21.9049 5.16992 22.875C5.93164 23.8385 6.96029 24.3203 8.25586 24.3203C9.23242 24.3203 10.0527 24.0827 10.7168 23.6074C11.3874 23.1322 11.8333 22.4681 12.0547 21.6152H14.2324C13.9655 23.0736 13.3047 24.2096 12.25 25.0234C11.2018 25.8307 9.86719 26.2344 8.24609 26.2344ZM27.8164 26H25.6289V19.7598H18.3926V26H16.2051V11.9082H18.3926V17.8652H25.6289V11.9082H27.8164V26ZM32.8555 29.5352V28.4805H29.5254V26.957C30.0527 25.9414 30.8958 24.5514 32.0547 22.7871H34.584V27.0645H35.4141V28.4805H34.584V29.5352H32.8555ZM31.0586 27.1035V27.1328H32.9043V24.0078H32.875C32.0612 25.3034 31.4557 26.3353 31.0586 27.1035ZM42.6504 11.6738C44.6751 11.6738 46.2799 12.3281 47.4648 13.6367C48.6562 14.9453 49.252 16.7194 49.252 18.959C49.252 21.1986 48.6595 22.9727 47.4746 24.2812C46.2897 25.5833 44.6816 26.2344 42.6504 26.2344C40.6191 26.2344 39.0111 25.5833 37.8262 24.2812C36.6413 22.9727 36.0488 21.1986 36.0488 18.959C36.0488 16.7194 36.6413 14.9453 37.8262 13.6367C39.0111 12.3281 40.6191 11.6738 42.6504 11.6738ZM42.6504 13.5977C41.3092 13.5977 40.2448 14.0794 39.457 15.043C38.6758 16.0065 38.2852 17.3118 38.2852 18.959C38.2852 20.5996 38.6758 21.9017 39.457 22.8652C40.2448 23.8288 41.3092 24.3105 42.6504 24.3105C43.985 24.3105 45.043 23.8288 45.8242 22.8652C46.612 21.9017 47.0059 20.5996 47.0059 18.959C47.0059 17.3118 46.612 16.0065 45.8242 15.043C45.043 14.0794 43.985 13.5977 42.6504 13.5977Z" fill="white"></path> <rect x="0.5" y="0.5" width="50" height="35" stroke="white" stroke-opacity="0.15"></rect> </svg> 