<?xml version="1.0" encoding="UTF-8"?> <svg xmlns="http://www.w3.org/2000/svg" width="37" height="36" viewBox="0 0 37 36" fill="none"> <path d="M11.2461 26.2344C9.26693 26.2344 7.69466 25.5801 6.5293 24.2715C5.37044 22.9629 4.79102 21.1888 4.79102 18.9492C4.79102 16.7227 5.3737 14.9551 6.53906 13.6465C7.70443 12.3314 9.27344 11.6738 11.2461 11.6738C12.8477 11.6738 14.1986 12.1263 15.2988 13.0312C16.3991 13.9297 17.0404 15.1113 17.2227 16.5762H15.0547C14.8594 15.6712 14.4134 14.9486 13.7168 14.4082C13.0267 13.8613 12.2031 13.5879 11.2461 13.5879C9.96354 13.5879 8.93815 14.0762 8.16992 15.0527C7.4082 16.0228 7.02734 17.3216 7.02734 18.9492C7.02734 20.5964 7.4082 21.9049 8.16992 22.875C8.93164 23.8385 9.96029 24.3203 11.2559 24.3203C12.2324 24.3203 13.0527 24.0827 13.7168 23.6074C14.3874 23.1322 14.8333 22.4681 15.0547 21.6152H17.2324C16.9655 23.0736 16.3047 24.2096 15.25 25.0234C14.2018 25.8307 12.8672 26.2344 11.2461 26.2344ZM25.2988 11.6738C27.3236 11.6738 28.9284 12.3281 30.1133 13.6367C31.3047 14.9453 31.9004 16.7194 31.9004 18.959C31.9004 21.1986 31.3079 22.9727 30.123 24.2812C28.9382 25.5833 27.3301 26.2344 25.2988 26.2344C23.2676 26.2344 21.6595 25.5833 20.4746 24.2812C19.2897 22.9727 18.6973 21.1986 18.6973 18.959C18.6973 16.7194 19.2897 14.9453 20.4746 13.6367C21.6595 12.3281 23.2676 11.6738 25.2988 11.6738ZM25.2988 13.5977C23.9577 13.5977 22.8932 14.0794 22.1055 15.043C21.3242 16.0065 20.9336 17.3118 20.9336 18.959C20.9336 20.5996 21.3242 21.9017 22.1055 22.8652C22.8932 23.8288 23.9577 24.3105 25.2988 24.3105C26.6335 24.3105 27.6914 23.8288 28.4727 22.8652C29.2604 21.9017 29.6543 20.5996 29.6543 18.959C29.6543 17.3118 29.2604 16.0065 28.4727 15.043C27.6914 14.0794 26.6335 13.5977 25.2988 13.5977Z" fill="white"></path> <rect x="0.5" y="0.5" width="36" height="35" stroke="white" stroke-opacity="0.15"></rect> </svg> 