<?xml version="1.0" encoding="UTF-8"?> <svg xmlns="http://www.w3.org/2000/svg" width="37" height="36" viewBox="0 0 37 36" fill="none"> <path d="M11.4277 25H9.29883V10.9082H11.2812L18.5859 21.2988H18.6641V10.9082H20.793V25H18.8203L11.5156 14.6191H11.4277V25ZM22.4922 23.877C22.4922 23.1999 22.7363 22.653 23.2246 22.2363C23.7194 21.8197 24.3672 21.6113 25.168 21.6113C25.9362 21.6113 26.5579 21.7969 27.0332 22.168C27.515 22.5326 27.7559 23.0143 27.7559 23.6133C27.7559 23.9648 27.6615 24.2969 27.4727 24.6094C27.2904 24.9219 26.9681 25.2865 26.5059 25.7031L24.9629 27.1094V27.1387H27.834V28.5352H22.5996V27.3242L25.2656 24.9121C25.5391 24.6452 25.7279 24.4271 25.832 24.2578C25.9362 24.0885 25.9883 23.916 25.9883 23.7402C25.9883 23.5124 25.9036 23.3268 25.7344 23.1836C25.5716 23.0404 25.3568 22.9688 25.0898 22.9688C24.8229 22.9688 24.6016 23.0566 24.4258 23.2324C24.25 23.4017 24.1621 23.6165 24.1621 23.877V23.916H22.4922V23.877Z" fill="white"></path> <rect x="0.5" y="0.5" width="36" height="35" stroke="white" stroke-opacity="0.15"></rect> </svg> 