<?xml version="1.0" encoding="UTF-8"?> <svg xmlns="http://www.w3.org/2000/svg" width="37" height="36" viewBox="0 0 37 36" fill="none"> <path d="M14.4902 9.67383C16.515 9.67383 18.1198 10.3281 19.3047 11.6367C20.4961 12.9453 21.0918 14.7194 21.0918 16.959C21.0918 19.1986 20.4993 20.9727 19.3145 22.2812C18.1296 23.5833 16.5215 24.2344 14.4902 24.2344C12.459 24.2344 10.8509 23.5833 9.66602 22.2812C8.48112 20.9727 7.88867 19.1986 7.88867 16.959C7.88867 14.7194 8.48112 12.9453 9.66602 11.6367C10.8509 10.3281 12.459 9.67383 14.4902 9.67383ZM14.4902 11.5977C13.1491 11.5977 12.0846 12.0794 11.2969 13.043C10.5156 14.0065 10.125 15.3118 10.125 16.959C10.125 18.5996 10.5156 19.9017 11.2969 20.8652C12.0846 21.8288 13.1491 22.3105 14.4902 22.3105C15.8249 22.3105 16.8828 21.8288 17.6641 20.8652C18.4518 19.9017 18.8457 18.5996 18.8457 16.959C18.8457 15.3118 18.4518 14.0065 17.6641 13.043C16.8828 12.0794 15.8249 11.5977 14.4902 11.5977ZM22.3711 22.877C22.3711 22.1999 22.6152 21.653 23.1035 21.2363C23.5983 20.8197 24.2461 20.6113 25.0469 20.6113C25.8151 20.6113 26.4368 20.7969 26.9121 21.168C27.3939 21.5326 27.6348 22.0143 27.6348 22.6133C27.6348 22.9648 27.5404 23.2969 27.3516 23.6094C27.1693 23.9219 26.847 24.2865 26.3848 24.7031L24.8418 26.1094V26.1387H27.7129V27.5352H22.4785V26.3242L25.1445 23.9121C25.418 23.6452 25.6068 23.4271 25.7109 23.2578C25.8151 23.0885 25.8672 22.916 25.8672 22.7402C25.8672 22.5124 25.7826 22.3268 25.6133 22.1836C25.4505 22.0404 25.2357 21.9688 24.9688 21.9688C24.7018 21.9688 24.4805 22.0566 24.3047 22.2324C24.1289 22.4017 24.041 22.6165 24.041 22.877V22.916H22.3711V22.877Z" fill="white"></path> <rect x="0.5" y="0.5" width="36" height="35" stroke="white" stroke-opacity="0.15"></rect> </svg> 