<?xml version="1.0" encoding="UTF-8"?> <svg xmlns="http://www.w3.org/2000/svg" width="51" height="36" viewBox="0 0 51 36" fill="none"> <path d="M8.24609 24.2344C6.26693 24.2344 4.69466 23.5801 3.5293 22.2715C2.37044 20.9629 1.79102 19.1888 1.79102 16.9492C1.79102 14.7227 2.3737 12.9551 3.53906 11.6465C4.70443 10.3314 6.27344 9.67383 8.24609 9.67383C9.84766 9.67383 11.1986 10.1263 12.2988 11.0312C13.3991 11.9297 14.0404 13.1113 14.2227 14.5762H12.0547C11.8594 13.6712 11.4134 12.9486 10.7168 12.4082C10.0267 11.8613 9.20312 11.5879 8.24609 11.5879C6.96354 11.5879 5.93815 12.0762 5.16992 13.0527C4.4082 14.0228 4.02734 15.3216 4.02734 16.9492C4.02734 18.5964 4.4082 19.9049 5.16992 20.875C5.93164 21.8385 6.96029 22.3203 8.25586 22.3203C9.23242 22.3203 10.0527 22.0827 10.7168 21.6074C11.3874 21.1322 11.8333 20.4681 12.0547 19.6152H14.2324C13.9655 21.0736 13.3047 22.2096 12.25 23.0234C11.2018 23.8307 9.86719 24.2344 8.24609 24.2344ZM27.8164 24H25.6289V17.7598H18.3926V24H16.2051V9.9082H18.3926V15.8652H25.6289V9.9082H27.8164V24ZM29.4961 22.877C29.4961 22.1999 29.7402 21.653 30.2285 21.2363C30.7233 20.8197 31.3711 20.6113 32.1719 20.6113C32.9401 20.6113 33.5618 20.7969 34.0371 21.168C34.5189 21.5326 34.7598 22.0143 34.7598 22.6133C34.7598 22.9648 34.6654 23.2969 34.4766 23.6094C34.2943 23.9219 33.972 24.2865 33.5098 24.7031L31.9668 26.1094V26.1387H34.8379V27.5352H29.6035V26.3242L32.2695 23.9121C32.543 23.6452 32.7318 23.4271 32.8359 23.2578C32.9401 23.0885 32.9922 22.916 32.9922 22.7402C32.9922 22.5124 32.9076 22.3268 32.7383 22.1836C32.5755 22.0404 32.3607 21.9688 32.0938 21.9688C31.8268 21.9688 31.6055 22.0566 31.4297 22.2324C31.2539 22.4017 31.166 22.6165 31.166 22.877V22.916H29.4961V22.877ZM42.1621 9.67383C44.1868 9.67383 45.7917 10.3281 46.9766 11.6367C48.168 12.9453 48.7637 14.7194 48.7637 16.959C48.7637 19.1986 48.1712 20.9727 46.9863 22.2812C45.8014 23.5833 44.1934 24.2344 42.1621 24.2344C40.1309 24.2344 38.5228 23.5833 37.3379 22.2812C36.153 20.9727 35.5605 19.1986 35.5605 16.959C35.5605 14.7194 36.153 12.9453 37.3379 11.6367C38.5228 10.3281 40.1309 9.67383 42.1621 9.67383ZM42.1621 11.5977C40.821 11.5977 39.7565 12.0794 38.9688 13.043C38.1875 14.0065 37.7969 15.3118 37.7969 16.959C37.7969 18.5996 38.1875 19.9017 38.9688 20.8652C39.7565 21.8288 40.821 22.3105 42.1621 22.3105C43.4967 22.3105 44.5547 21.8288 45.3359 20.8652C46.1237 19.9017 46.5176 18.5996 46.5176 16.959C46.5176 15.3118 46.1237 14.0065 45.3359 13.043C44.5547 12.0794 43.4967 11.5977 42.1621 11.5977Z" fill="white"></path> <rect x="0.5" y="0.5" width="50" height="35" stroke="white" stroke-opacity="0.15"></rect> </svg> 