<?xml version="1.0" encoding="UTF-8"?> <svg xmlns="http://www.w3.org/2000/svg" width="37" height="36" viewBox="0 0 37 36" fill="none"> <path d="M18.4785 25L17.1895 21.1914H11.8184L10.5293 25H8.25391L13.3418 10.9082H15.7051L20.793 25H18.4785ZM14.4746 13.252L12.375 19.4336H16.6328L14.5332 13.252H14.4746ZM22.0918 25V14.7266H24.1035V16.4746H24.1523C24.3216 15.8757 24.6243 15.4069 25.0605 15.0684C25.4967 14.7298 26.0176 14.5605 26.623 14.5605C26.8249 14.5605 27.0658 14.5866 27.3457 14.6387V16.6016C27.1569 16.5234 26.8411 16.4844 26.3984 16.4844C25.7214 16.4844 25.1842 16.696 24.7871 17.1191C24.3965 17.5423 24.2012 18.1185 24.2012 18.8477V25H22.0918Z" fill="white"></path> <rect x="0.5" y="0.5" width="36" height="35" stroke="white" stroke-opacity="0.15"></rect> </svg> 