<?xml version="1.0" encoding="UTF-8"?> <svg xmlns="http://www.w3.org/2000/svg" width="37" height="36" viewBox="0 0 37 36" fill="none"> <path d="M8.97656 22.2505C7.09635 22.2505 5.6027 21.6258 4.49561 20.3765C3.39469 19.1271 2.84424 17.4355 2.84424 15.3018C2.84424 13.1803 3.39779 11.495 4.50488 10.2456C5.61816 8.99007 7.10872 8.3623 8.97656 8.3623C10.4486 8.3623 11.701 8.7736 12.7339 9.59619C13.7729 10.4126 14.4038 11.4888 14.6265 12.8247H12.5391C12.3226 12.033 11.8896 11.3991 11.2402 10.9229C10.597 10.4466 9.84245 10.2085 8.97656 10.2085C7.75814 10.2085 6.78402 10.6724 6.0542 11.6001C5.33057 12.5216 4.96875 13.7555 4.96875 15.3018C4.96875 16.8665 5.33057 18.1097 6.0542 19.0312C6.77783 19.9466 7.75505 20.4043 8.98584 20.4043C9.87646 20.4043 10.631 20.1971 11.2495 19.7827C11.8742 19.3683 12.304 18.7869 12.5391 18.0386H14.6265C14.3358 19.3683 13.6956 20.4043 12.7061 21.1465C11.7227 21.8825 10.4795 22.2505 8.97656 22.2505ZM22.4009 8.39014C24.3244 8.39014 25.849 9.01172 26.9746 10.2549C28.1064 11.498 28.6724 13.1834 28.6724 15.311C28.6724 17.4386 28.1095 19.124 26.9839 20.3672C25.8582 21.6042 24.3306 22.2227 22.4009 22.2227C20.4712 22.2227 18.9435 21.6042 17.8179 20.3672C16.6922 19.124 16.1294 17.4386 16.1294 15.311C16.1294 13.1834 16.6922 11.498 17.8179 10.2549C18.9435 9.01172 20.4712 8.39014 22.4009 8.39014ZM22.4009 10.2178C21.1268 10.2178 20.1156 10.6755 19.3672 11.5908C18.625 12.5062 18.2539 13.7463 18.2539 15.311C18.2539 16.8696 18.625 18.1066 19.3672 19.022C20.1156 19.9373 21.1268 20.395 22.4009 20.395C23.6688 20.395 24.6738 19.9373 25.416 19.022C26.1644 18.1066 26.5386 16.8696 26.5386 15.311C26.5386 13.7463 26.1644 12.5062 25.416 11.5908C24.6738 10.6755 23.6688 10.2178 22.4009 10.2178ZM29.7949 20.9331C29.7949 20.2899 30.0269 19.7703 30.4907 19.3745C30.9608 18.9787 31.5762 18.7808 32.3369 18.7808C33.0667 18.7808 33.6574 18.957 34.1089 19.3096C34.5666 19.6559 34.7954 20.1136 34.7954 20.6826C34.7954 21.0166 34.7057 21.332 34.5264 21.6289C34.3532 21.9258 34.047 22.2721 33.6079 22.668L32.1421 24.0039V24.0317H34.8696V25.3584H29.897V24.208L32.4297 21.9165C32.6895 21.6629 32.8688 21.4557 32.9678 21.2949C33.0667 21.1341 33.1162 20.9702 33.1162 20.8032C33.1162 20.5868 33.0358 20.4105 32.875 20.2744C32.7204 20.1383 32.5163 20.0703 32.2627 20.0703C32.0091 20.0703 31.7988 20.1538 31.6318 20.3208C31.4648 20.4816 31.3813 20.6857 31.3813 20.9331V20.9702H29.7949V20.9331Z" fill="white"></path> <rect x="0.5" y="0.5" width="36" height="35" stroke="white" stroke-opacity="0.15"></rect> </svg> 