<?xml version="1.0" encoding="UTF-8"?> <svg xmlns="http://www.w3.org/2000/svg" width="37" height="36" viewBox="0 0 37 36" fill="none"> <path d="M8.24609 24.2344C6.26693 24.2344 4.69466 23.5801 3.5293 22.2715C2.37044 20.9629 1.79102 19.1888 1.79102 16.9492C1.79102 14.7227 2.3737 12.9551 3.53906 11.6465C4.70443 10.3314 6.27344 9.67383 8.24609 9.67383C9.84766 9.67383 11.1986 10.1263 12.2988 11.0312C13.3991 11.9297 14.0404 13.1113 14.2227 14.5762H12.0547C11.8594 13.6712 11.4134 12.9486 10.7168 12.4082C10.0267 11.8613 9.20312 11.5879 8.24609 11.5879C6.96354 11.5879 5.93815 12.0762 5.16992 13.0527C4.4082 14.0228 4.02734 15.3216 4.02734 16.9492C4.02734 18.5964 4.4082 19.9049 5.16992 20.875C5.93164 21.8385 6.96029 22.3203 8.25586 22.3203C9.23242 22.3203 10.0527 22.0827 10.7168 21.6074C11.3874 21.1322 11.8333 20.4681 12.0547 19.6152H14.2324C13.9655 21.0736 13.3047 22.2096 12.25 23.0234C11.2018 23.8307 9.86719 24.2344 8.24609 24.2344ZM27.8164 24H25.6289V17.7598H18.3926V24H16.2051V9.9082H18.3926V15.8652H25.6289V9.9082H27.8164V24ZM32.8555 27.5352V26.4805H29.5254V24.957C30.0527 23.9414 30.8958 22.5514 32.0547 20.7871H34.584V25.0645H35.4141V26.4805H34.584V27.5352H32.8555ZM31.0586 25.1035V25.1328H32.9043V22.0078H32.875C32.0612 23.3034 31.4557 24.3353 31.0586 25.1035Z" fill="white"></path> <rect x="0.5" y="0.5" width="36" height="35" stroke="white" stroke-opacity="0.15"></rect> </svg> 